<svg baseProfile="full" height="400px" version="1.1" width="720px" xmlns="http://www.w3.org/2000/svg" xmlns:ev="http://www.w3.org/2001/xml-events" xmlns:xlink="http://www.w3.org/1999/xlink"><defs><g id="arrowhead" transform="translate(-5, -5.0)"><polyline points="0,0 0,10 5,5.0 0,0" /></g></defs><rect fill="#D0D0D0" height="384" width="16" x="48" y="16" /><rect fill="#D0D0D0" height="384" width="16" x="160" y="16" /><rect fill="#D0D0D0" height="384" width="16" x="272" y="16" /><rect fill="#D0D0D0" height="384" width="16" x="384" y="16" /><rect fill="#D0D0D0" height="384" width="16" x="496" y="16" /><rect fill="#D0D0D0" height="384" width="16" x="608" y="16" /><rect fill="#D0D0D0" height="384" width="16" x="64" y="16" /><rect fill="#D0D0D0" height="384" width="16" x="176" y="16" /><rect fill="#D0D0D0" height="384" width="16" x="288" y="16" /><rect fill="#D0D0D0" height="384" width="16" x="400" y="16" /><rect fill="#D0D0D0" height="384" width="16" x="512" y="16" /><rect fill="#D0D0D0" height="384" width="16" x="624" y="16" /><rect fill="#D0D0D0" height="384" width="16" x="480" y="16" /><text dominant-baseline="hanging" font-family="Serif" font-size="13" font-weight="bold" x="1" y="1">2020/4</text><text dominant-baseline="hanging" font-family="Serif" font-size="11" text-anchor="middle" x="8.0" y="17">We</text><text dominant-baseline="hanging" font-family="Serif" font-size="11" text-anchor="middle" x="8.0" y="33">1</text><text dominant-baseline="hanging" font-family="Serif" font-size="11" text-anchor="middle" x="24.0" y="17">Th</text><text dominant-baseline="hanging" font-family="Serif" font-size="11" text-anchor="middle" x="24.0" y="33">2</text><text dominant-baseline="hanging" font-family="Serif" font-size="11" text-anchor="middle" x="40.0" y="17">Fr</text><text dominant-baseline="hanging" font-family="Serif" font-size="11" text-anchor="middle" x="40.0" y="33">3</text><text dominant-baseline="hanging" font-family="Serif" font-size="11" text-anchor="middle" x="56.0" y="17">Sa</text><text dominant-baseline="hanging" font-family="Serif" font-size="11" text-anchor="middle" x="56.0" y="33">4</text><text dominant-baseline="hanging" font-family="Serif" font-size="11" text-anchor="middle" x="72.0" y="17">Su</text><text dominant-baseline="hanging" font-family="Serif" font-size="11" text-anchor="middle" x="72.0" y="33">5</text><text dominant-baseline="hanging" font-family="Serif" font-size="11" text-anchor="middle" x="88.0" y="17">Mo</text><text dominant-baseline="hanging" font-family="Serif" font-size="11" text-anchor="middle" x="88.0" y="33">6</text><text dominant-baseline="hanging" font-family="Serif" font-size="11" text-anchor="middle" x="104.0" y="17">Tu</text><text dominant-baseline="hanging" font-family="Serif" font-size="11" text-anchor="middle" x="104.0" y="33">7</text><text dominant-baseline="hanging" font-family="Serif" font-size="11" text-anchor="middle" x="120.0" y="17">We</text><text dominant-baseline="hanging" font-family="Serif" font-size="11" text-anchor="middle" x="120.0" y="33">8</text><text dominant-baseline="hanging" font-family="Serif" font-size="11" text-anchor="middle" x="136.0" y="17">Th</text><text dominant-baseline="hanging" font-family="Serif" font-size="11" text-anchor="middle" x="136.0" y="33">9</text><text dominant-baseline="hanging" font-family="Serif" font-size="11" text-anchor="middle" x="152.0" y="17">Fr</text><text dominant-baseline="hanging" font-family="Serif" font-size="11" text-anchor="middle" x="152.0" y="33">10</text><text dominant-baseline="hanging" font-family="Serif" font-size="11" text-anchor="middle" x="168.0" y="17">Sa</text><text dominant-baseline="hanging" font-family="Serif" font-size="11" text-anchor="middle" x="168.0" y="33">11</text><text dominant-baseline="hanging" font-family="Serif" font-size="11" text-anchor="middle" x="184.0" y="17">Su</text><text dominant-baseline="hanging" font-family="Serif" font-size="11" text-anchor="middle" x="184.0" y="33">12</text><text dominant-baseline="hanging" font-family="Serif" font-size="11" text-anchor="middle" x="200.0" y="17">Mo</text><text dominant-baseline="hanging" font-family="Serif" font-size="11" text-anchor="middle" x="200.0" y="33">13</text><text dominant-baseline="hanging" font-family="Serif" font-size="11" text-anchor="middle" x="216.0" y="17">Tu</text><text dominant-baseline="hanging" font-family="Serif" font-size="11" text-anchor="middle" x="216.0" y="33">14</text><text dominant-baseline="hanging" font-family="Serif" font-size="11" text-anchor="middle" x="232.0" y="17">We</text><text dominant-baseline="hanging" font-family="Serif" font-size="11" text-anchor="middle" x="232.0" y="33">15</text><text dominant-baseline="hanging" font-family="Serif" font-size="11" text-anchor="middle" x="248.0" y="17">Th</text><text dominant-baseline="hanging" font-family="Serif" font-size="11" text-anchor="middle" x="248.0" y="33">16</text><text dominant-baseline="hanging" font-family="Serif" font-size="11" text-anchor="middle" x="264.0" y="17">Fr</text><text dominant-baseline="hanging" font-family="Serif" font-size="11" text-anchor="middle" x="264.0" y="33">17</text><text dominant-baseline="hanging" font-family="Serif" font-size="11" text-anchor="middle" x="280.0" y="17">Sa</text><text dominant-baseline="hanging" font-family="Serif" font-size="11" text-anchor="middle" x="280.0" y="33">18</text><text dominant-baseline="hanging" font-family="Serif" font-size="11" text-anchor="middle" x="296.0" y="17">Su</text><text dominant-baseline="hanging" font-family="Serif" font-size="11" text-anchor="middle" x="296.0" y="33">19</text><text dominant-baseline="hanging" font-family="Serif" font-size="11" text-anchor="middle" x="312.0" y="17">Mo</text><text dominant-baseline="hanging" font-family="Serif" font-size="11" text-anchor="middle" x="312.0" y="33">20</text><text dominant-baseline="hanging" font-family="Serif" font-size="11" text-anchor="middle" x="328.0" y="17">Tu</text><text dominant-baseline="hanging" font-family="Serif" font-size="11" text-anchor="middle" x="328.0" y="33">21</text><text dominant-baseline="hanging" font-family="Serif" font-size="11" text-anchor="middle" x="344.0" y="17">We</text><text dominant-baseline="hanging" font-family="Serif" font-size="11" text-anchor="middle" x="344.0" y="33">22</text><text dominant-baseline="hanging" font-family="Serif" font-size="11" text-anchor="middle" x="360.0" y="17">Th</text><text dominant-baseline="hanging" font-family="Serif" font-size="11" text-anchor="middle" x="360.0" y="33">23</text><text dominant-baseline="hanging" font-family="Serif" font-size="11" text-anchor="middle" x="376.0" y="17">Fr</text><text dominant-baseline="hanging" font-family="Serif" font-size="11" text-anchor="middle" x="376.0" y="33">24</text><text dominant-baseline="hanging" font-family="Serif" font-size="11" text-anchor="middle" x="392.0" y="17">Sa</text><text dominant-baseline="hanging" font-family="Serif" font-size="11" text-anchor="middle" x="392.0" y="33">25</text><text dominant-baseline="hanging" font-family="Serif" font-size="11" text-anchor="middle" x="408.0" y="17">Su</text><text dominant-baseline="hanging" font-family="Serif" font-size="11" text-anchor="middle" x="408.0" y="33">26</text><text dominant-baseline="hanging" font-family="Serif" font-size="11" text-anchor="middle" x="424.0" y="17">Mo</text><text dominant-baseline="hanging" font-family="Serif" font-size="11" text-anchor="middle" x="424.0" y="33">27</text><text dominant-baseline="hanging" font-family="Serif" font-size="11" text-anchor="middle" x="440.0" y="17">Tu</text><text dominant-baseline="hanging" font-family="Serif" font-size="11" text-anchor="middle" x="440.0" y="33">28</text><text dominant-baseline="hanging" font-family="Serif" font-size="11" text-anchor="middle" x="456.0" y="17">We</text><text dominant-baseline="hanging" font-family="Serif" font-size="11" text-anchor="middle" x="456.0" y="33">29</text><text dominant-baseline="hanging" font-family="Serif" font-size="11" text-anchor="middle" x="472.0" y="17">Th</text><text dominant-baseline="hanging" font-family="Serif" font-size="11" text-anchor="middle" x="472.0" y="33">30</text><text dominant-baseline="hanging" font-family="Serif" font-size="13" font-weight="bold" x="481" y="1">2020/5</text><text dominant-baseline="hanging" font-family="Serif" font-size="11" text-anchor="middle" x="488.0" y="17">Fr</text><text dominant-baseline="hanging" font-family="Serif" font-size="11" text-anchor="middle" x="488.0" y="33">1</text><text dominant-baseline="hanging" font-family="Serif" font-size="11" text-anchor="middle" x="504.0" y="17">Sa</text><text dominant-baseline="hanging" font-family="Serif" font-size="11" text-anchor="middle" x="504.0" y="33">2</text><text dominant-baseline="hanging" font-family="Serif" font-size="11" text-anchor="middle" x="520.0" y="17">Su</text><text dominant-baseline="hanging" font-family="Serif" font-size="11" text-anchor="middle" x="520.0" y="33">3</text><text dominant-baseline="hanging" font-family="Serif" font-size="11" text-anchor="middle" x="536.0" y="17">Mo</text><text dominant-baseline="hanging" font-family="Serif" font-size="11" text-anchor="middle" x="536.0" y="33">4</text><text dominant-baseline="hanging" font-family="Serif" font-size="11" text-anchor="middle" x="552.0" y="17">Tu</text><text dominant-baseline="hanging" font-family="Serif" font-size="11" text-anchor="middle" x="552.0" y="33">5</text><text dominant-baseline="hanging" font-family="Serif" font-size="11" text-anchor="middle" x="568.0" y="17">We</text><text dominant-baseline="hanging" font-family="Serif" font-size="11" text-anchor="middle" x="568.0" y="33">6</text><text dominant-baseline="hanging" font-family="Serif" font-size="11" text-anchor="middle" x="584.0" y="17">Th</text><text dominant-baseline="hanging" font-family="Serif" font-size="11" text-anchor="middle" x="584.0" y="33">7</text><text dominant-baseline="hanging" font-family="Serif" font-size="11" text-anchor="middle" x="600.0" y="17">Fr</text><text dominant-baseline="hanging" font-family="Serif" font-size="11" text-anchor="middle" x="600.0" y="33">8</text><text dominant-baseline="hanging" font-family="Serif" font-size="11" text-anchor="middle" x="616.0" y="17">Sa</text><text dominant-baseline="hanging" font-family="Serif" font-size="11" text-anchor="middle" x="616.0" y="33">9</text><text dominant-baseline="hanging" font-family="Serif" font-size="11" text-anchor="middle" x="632.0" y="17">Su</text><text dominant-baseline="hanging" font-family="Serif" font-size="11" text-anchor="middle" x="632.0" y="33">10</text><text dominant-baseline="hanging" font-family="Serif" font-size="11" text-anchor="middle" x="648.0" y="17">Mo</text><text dominant-baseline="hanging" font-family="Serif" font-size="11" text-anchor="middle" x="648.0" y="33">11</text><text dominant-baseline="hanging" font-family="Serif" font-size="11" text-anchor="middle" x="664.0" y="17">Tu</text><text dominant-baseline="hanging" font-family="Serif" font-size="11" text-anchor="middle" x="664.0" y="33">12</text><text dominant-baseline="hanging" font-family="Serif" font-size="11" text-anchor="middle" x="680.0" y="17">We</text><text dominant-baseline="hanging" font-family="Serif" font-size="11" text-anchor="middle" x="680.0" y="33">13</text><text dominant-baseline="hanging" font-family="Serif" font-size="11" text-anchor="middle" x="696.0" y="17">Th</text><text dominant-baseline="hanging" font-family="Serif" font-size="11" text-anchor="middle" x="696.0" y="33">14</text><text dominant-baseline="hanging" font-family="Serif" font-size="11" text-anchor="middle" x="712.0" y="17">Fr</text><text dominant-baseline="hanging" font-family="Serif" font-size="11" text-anchor="middle" x="712.0" y="33">15</text><line style="stroke:#C0C0C0;stroke-width=1.0" x1="0" x2="0" y1="0" y2="400" /><line style="stroke:#C0C0C0;stroke-width=1.0" x1="0" x2="0" y1="48" y2="400" /><line style="stroke:#C0C0C0;stroke-width=1.0" x1="16" x2="16" y1="48" y2="400" /><line style="stroke:#C0C0C0;stroke-width=1.0" x1="32" x2="32" y1="48" y2="400" /><line style="stroke:#C0C0C0;stroke-width=1.0" x1="48" x2="48" y1="48" y2="400" /><line style="stroke:#C0C0C0;stroke-width=1.0" x1="64" x2="64" y1="48" y2="400" /><line style="stroke:#C0C0C0;stroke-width=1.0" x1="80" x2="80" y1="48" y2="400" /><line style="stroke:#C0C0C0;stroke-width=1.0" x1="96" x2="96" y1="48" y2="400" /><line style="stroke:#C0C0C0;stroke-width=1.0" x1="112" x2="112" y1="48" y2="400" /><line style="stroke:#C0C0C0;stroke-width=1.0" x1="128" x2="128" y1="48" y2="400" /><line style="stroke:#C0C0C0;stroke-width=1.0" x1="144" x2="144" y1="48" y2="400" /><line style="stroke:#C0C0C0;stroke-width=1.0" x1="160" x2="160" y1="48" y2="400" /><line style="stroke:#C0C0C0;stroke-width=1.0" x1="176" x2="176" y1="48" y2="400" /><line style="stroke:#C0C0C0;stroke-width=1.0" x1="192" x2="192" y1="48" y2="400" /><line style="stroke:#C0C0C0;stroke-width=1.0" x1="208" x2="208" y1="48" y2="400" /><line style="stroke:#C0C0C0;stroke-width=1.0" x1="224" x2="224" y1="48" y2="400" /><line style="stroke:#C0C0C0;stroke-width=1.0" x1="240" x2="240" y1="48" y2="400" /><line style="stroke:#C0C0C0;stroke-width=1.0" x1="256" x2="256" y1="48" y2="400" /><line style="stroke:#C0C0C0;stroke-width=1.0" x1="272" x2="272" y1="48" y2="400" /><line style="stroke:#C0C0C0;stroke-width=1.0" x1="288" x2="288" y1="48" y2="400" /><line style="stroke:#C0C0C0;stroke-width=1.0" x1="304" x2="304" y1="48" y2="400" /><line style="stroke:#C0C0C0;stroke-width=1.0" x1="320" x2="320" y1="48" y2="400" /><line style="stroke:#C0C0C0;stroke-width=1.0" x1="336" x2="336" y1="48" y2="400" /><line style="stroke:#C0C0C0;stroke-width=1.0" x1="352" x2="352" y1="48" y2="400" /><line style="stroke:#C0C0C0;stroke-width=1.0" x1="368" x2="368" y1="48" y2="400" /><line style="stroke:#C0C0C0;stroke-width=1.0" x1="384" x2="384" y1="48" y2="400" /><line style="stroke:#C0C0C0;stroke-width=1.0" x1="400" x2="400" y1="48" y2="400" /><line style="stroke:#C0C0C0;stroke-width=1.0" x1="416" x2="416" y1="48" y2="400" /><line style="stroke:#C0C0C0;stroke-width=1.0" x1="432" x2="432" y1="48" y2="400" /><line style="stroke:#C0C0C0;stroke-width=1.0" x1="448" x2="448" y1="48" y2="400" /><line style="stroke:#C0C0C0;stroke-width=1.0" x1="464" x2="464" y1="48" y2="400" /><line style="stroke:#C0C0C0;stroke-width=1.0" x1="480" x2="480" y1="0" y2="400" /><line style="stroke:#C0C0C0;stroke-width=1.0" x1="480" x2="480" y1="48" y2="400" /><line style="stroke:#C0C0C0;stroke-width=1.0" x1="496" x2="496" y1="48" y2="400" /><line style="stroke:#C0C0C0;stroke-width=1.0" x1="512" x2="512" y1="48" y2="400" /><line style="stroke:#C0C0C0;stroke-width=1.0" x1="528" x2="528" y1="48" y2="400" /><line style="stroke:#C0C0C0;stroke-width=1.0" x1="544" x2="544" y1="48" y2="400" /><line style="stroke:#C0C0C0;stroke-width=1.0" x1="560" x2="560" y1="48" y2="400" /><line style="stroke:#C0C0C0;stroke-width=1.0" x1="576" x2="576" y1="48" y2="400" /><line style="stroke:#C0C0C0;stroke-width=1.0" x1="592" x2="592" y1="48" y2="400" /><line style="stroke:#C0C0C0;stroke-width=1.0" x1="608" x2="608" y1="48" y2="400" /><line style="stroke:#C0C0C0;stroke-width=1.0" x1="624" x2="624" y1="48" y2="400" /><line style="stroke:#C0C0C0;stroke-width=1.0" x1="640" x2="640" y1="48" y2="400" /><line style="stroke:#C0C0C0;stroke-width=1.0" x1="656" x2="656" y1="48" y2="400" /><line style="stroke:#C0C0C0;stroke-width=1.0" x1="672" x2="672" y1="48" y2="400" /><line style="stroke:#C0C0C0;stroke-width=1.0" x1="688" x2="688" y1="48" y2="400" /><line style="stroke:#C0C0C0;stroke-width=1.0" x1="704" x2="704" y1="48" y2="400" /><line style="stroke:#C0C0C0;stroke-width=1.0" x1="720" x2="720" y1="0" y2="400" /><line style="stroke:#C0C0C0;stroke-width=1.0" x1="0" x2="720" y1="0" y2="0" /><line style="stroke:#C0C0C0;stroke-width=1.0" x1="0" x2="720" y1="48" y2="48" /><g id="group-Milestone" transform="translate(0, 64)"><line style="stroke:black; stroke-width=1.0" x1="0" x2="319.0" y1="5.333333333333333" y2="5.333333333333333" /><line style="stroke:black; stroke-width=1.0" x1="0" x2="319.0" y1="10.666666666666666" y2="10.666666666666666" /><text dominant-baseline="middle" font-family="Serif" font-size="13" text-anchor="middle" x="360.0" y="8.0">Milestone</text><line style="stroke:black; stroke-width=1.0" x1="401.0" x2="720" y1="5.333333333333333" y2="5.333333333333333" /><line style="stroke:black; stroke-width=1.0" x1="401.0" x2="720" y1="10.666666666666666" y2="10.666666666666666" /></g><g transform="translate(0, 96)"><g transform="translate(208, 0)"><polyline fill="yellowgreen" points="8.0,0 0,8.0 8.0,16 16,8.0 8.0,0" stroke="green" /><text color="black" dominant-baseline="hanging" font-family="Serif" font-size="13" x="18" y="2">Review</text></g></g><g id="group-Task" transform="translate(0, 128)"><line style="stroke:black; stroke-width=1.0" x1="0" x2="339.0" y1="5.333333333333333" y2="5.333333333333333" /><line style="stroke:black; stroke-width=1.0" x1="0" x2="339.0" y1="10.666666666666666" y2="10.666666666666666" /><text dominant-baseline="middle" font-family="Serif" font-size="13" text-anchor="middle" x="360.0" y="8.0">Task</text><line style="stroke:black; stroke-width=1.0" x1="381.0" x2="720" y1="5.333333333333333" y2="5.333333333333333" /><line style="stroke:black; stroke-width=1.0" x1="381.0" x2="720" y1="10.666666666666666" y2="10.666666666666666" /></g><g transform="translate(0, 160)"><rect fill="yellowgreen" height="16" rx="6" ry="6" stroke="green" width="224" x="144" y="0" /><text color="black" dominant-baseline="hanging" font-family="Serif" font-size="13" x="146" y="2">TK1</text></g><g transform="translate(0, 192)"><rect fill="yellowgreen" height="16" rx="6" ry="6" stroke="green" width="240" x="368" y="0" /><text color="black" dominant-baseline="hanging" font-family="Serif" font-size="13" x="370" y="2">TK2</text></g><g transform="translate(0, 224)"><rect fill="yellowgreen" height="16" rx="6" ry="6" stroke="green" width="96" x="0" y="0" /><rect fill="blueviolet" height="4" rx="2" ry="2" stroke="darkviolet" width="96" x="48" y="18" /><text color="black" dominant-baseline="hanging" font-family="Serif" font-size="13" x="2" y="2">Task 1@alice</text></g><g transform="translate(0, 256)"><rect fill="yellowgreen" height="16" rx="6" ry="6" stroke="green" width="112" x="96" y="0" /><rect fill="blueviolet" height="4" rx="2" ry="2" stroke="darkviolet" width="112" x="144" y="18" /><text color="black" dominant-baseline="hanging" font-family="Serif" font-size="13" x="98" y="2">Task 2@bob</text></g><g transform="translate(0, 288)"><rect fill="yellowgreen" height="16" rx="6" ry="6" stroke="green" width="512" x="208" y="0" /><rect fill="#FFFFFF" height="4" rx="2" ry="2" stroke="darkviolet" stroke-dasharray="4 3" width="112" x="256" y="18" /><text dominant-baseline="middle" font-family="Serif" font-size="10" font-weight="bold" x="370" y="21">20%</text><text color="black" dominant-baseline="hanging" font-family="Serif" font-size="13" x="210" y="2">Task 3</text><rect fill="blueviolet" height="4" rx="2" ry="2" stroke="darkviolet" width="48" x="256" y="18" /></g><g transform="translate(0, 320)"><rect fill="yellowgreen" height="16" rx="6" ry="6" stroke="green" width="128" x="208" y="0" /><text color="black" dominant-baseline="hanging" font-family="Serif" font-size="13" x="210" y="2">Task 4</text></g><g transform="translate(0, 352)"><rect fill="yellowgreen" height="16" rx="6" ry="6" stroke="green" width="224" x="128" y="0" /><rect fill="#FFFFFF" height="4" rx="2" ry="2" stroke="darkviolet" stroke-dasharray="4 3" width="144" x="240" y="18" /><text dominant-baseline="middle" font-family="Serif" font-size="10" font-weight="bold" x="386" y="21">30%</text><text color="black" dominant-baseline="hanging" font-family="Serif" font-size="13" x="130" y="2">Task 5</text><rect fill="blueviolet" height="4" rx="2" ry="2" stroke="darkviolet" width="64" x="240" y="18" /></g><g id="path-task1-to-task2"><line stroke="blue" stroke-width="2.0" x1="88.0" x2="88.0" y1="240" y2="264.0" /><line stroke="blue" stroke-width="2.0" x1="88.0" x2="96" y1="264.0" y2="264.0" /><g transform="translate(96, 264.0) rotate(0)"><use fill="blue" xlink:href="#arrowhead" /></g></g><g id="path-TK1-to-TK2"><line stroke="blue" stroke-width="2.0" x1="360.0" x2="360.0" y1="176" y2="200.0" /><line stroke="blue" stroke-width="2.0" x1="360.0" x2="368" y1="200.0" y2="200.0" /><g transform="translate(368, 200.0) rotate(0)"><use fill="blue" xlink:href="#arrowhead" /></g></g><g id="path-milestone1-to-task2"><line stroke="blue" stroke-width="2.0" x1="216.0" x2="216.0" y1="112" y2="264.0" /><line stroke="blue" stroke-width="2.0" x1="216.0" x2="208" y1="264.0" y2="264.0" /><g transform="translate(208, 264.0) rotate(180)"><use fill="blue" xlink:href="#arrowhead" /></g></g><g id="path-task2-to-task4"><line stroke="blue" stroke-width="2.0" x1="200.0" x2="200.0" y1="272" y2="328.0" /><line stroke="blue" stroke-width="2.0" x1="200.0" x2="208" y1="328.0" y2="328.0" /><g transform="translate(208, 328.0) rotate(0)"><use fill="blue" xlink:href="#arrowhead" /></g></g><g id="path-task2-to-task3"><line stroke="blue" stroke-width="2.0" x1="200.0" x2="200.0" y1="272" y2="296.0" /><line stroke="blue" stroke-width="2.0" x1="200.0" x2="208" y1="296.0" y2="296.0" /><g transform="translate(208, 296.0) rotate(0)"><use fill="blue" xlink:href="#arrowhead" /></g></g><line stroke="#FF0000" stroke-width="3.0" x1="304" x2="304" y1="0" y2="400" /></svg>